<svg width="49" height="49" viewBox="0 0 49 49" fill="none" xmlns="http://www.w3.org/2000/svg">
<path d="M29.0834 20.0584C29.0834 18.9538 29.9788 18.0584 31.0834 18.0584H32.1148C33.3983 18.0584 34.6038 18.6743 35.356 19.7143L38.8834 24.5917H29.0834V20.0584Z" stroke="#5661CB" stroke-width="1.63333" stroke-linecap="round" stroke-linejoin="round"/>
<path d="M29.0834 24.5917V23.7751C28.6324 23.7751 28.2667 24.1407 28.2667 24.5917H29.0834ZM38.8834 24.5917H39.7001C39.7001 24.1407 39.3344 23.7751 38.8834 23.7751V24.5917ZM29.0834 31.1251H28.2667C28.2667 31.5761 28.6324 31.9417 29.0834 31.9417V31.1251ZM31.078 31.1251V31.9417C31.4439 31.9417 31.7651 31.6983 31.8642 31.3461L31.078 31.1251ZM31.1951 30.7868L31.9496 31.0993L31.9496 31.0993L31.1951 30.7868ZM32.8285 29.1535L32.5159 28.399L32.5159 28.399L32.8285 29.1535ZM35.1383 29.1535L35.4509 28.399L35.4509 28.399L35.1383 29.1535ZM36.7717 30.7868L36.0172 31.0993L36.7717 30.7868ZM36.8888 31.1251L36.1026 31.3461C36.2016 31.6983 36.5229 31.9417 36.8888 31.9417V31.1251ZM38.8834 31.1251V31.9417C39.3344 31.9417 39.7001 31.5761 39.7001 31.1251H38.8834ZM29.0834 25.4084H38.8834V23.7751H29.0834V25.4084ZM29.9001 31.1251V24.5917H28.2667V31.1251H29.9001ZM31.078 30.3084H29.0834V31.9417H31.078V30.3084ZM31.8642 31.3461C31.8876 31.2627 31.9161 31.1803 31.9496 31.0993L30.4406 30.4743C30.3823 30.6152 30.3327 30.7587 30.2918 30.9041L31.8642 31.3461ZM31.9496 31.0993C32.173 30.5599 32.6016 30.1314 33.141 29.908L32.5159 28.399C31.5763 28.7882 30.8298 29.5347 30.4406 30.4743L31.9496 31.0993ZM33.141 29.908C33.6804 29.6846 34.2864 29.6846 34.8258 29.908L35.4509 28.399C34.5113 28.0098 33.4555 28.0098 32.5159 28.399L33.141 29.908ZM34.8258 29.908C35.3652 30.1314 35.7937 30.5599 36.0172 31.0993L37.5262 30.4743C37.137 29.5347 36.3905 28.7882 35.4509 28.399L34.8258 29.908ZM36.0172 31.0993C36.0507 31.1803 36.0792 31.2627 36.1026 31.3461L37.675 30.9041C37.6341 30.7587 37.5845 30.6152 37.5262 30.4743L36.0172 31.0993ZM38.8834 30.3084H36.8888V31.9417H38.8834V30.3084ZM38.0667 24.5917V31.1251H39.7001V24.5917H38.0667Z" fill="#5661CB"/>
<path d="M32.8285 29.1535C33.568 28.8472 34.3988 28.8472 35.1383 29.1535V29.1535C35.8778 29.4598 36.4654 30.0473 36.7717 30.7868V30.7868C37.078 31.5263 37.078 32.3572 36.7717 33.0967V33.0967C36.4654 33.8362 35.8778 34.4237 35.1383 34.7301V34.7301C34.3988 35.0364 33.568 35.0364 32.8285 34.7301V34.7301C32.089 34.4237 31.5014 33.8362 31.1951 33.0967V33.0967C30.8888 32.3572 30.8888 31.5263 31.1951 30.7868V30.7868C31.5014 30.0473 32.089 29.4598 32.8285 29.1535V29.1535Z" stroke="#5661CB" stroke-width="1.63333" stroke-linecap="round" stroke-linejoin="round"/>
<path d="M11.1167 31.1251H10.3001C10.3001 31.5761 10.6657 31.9417 11.1167 31.9417V31.1251ZM13.5196 31.1251V31.9417C13.8856 31.9417 14.2068 31.6984 14.3058 31.3461L13.5196 31.1251ZM13.6368 30.7868L14.3913 31.0993L14.3913 31.0993L13.6368 30.7868ZM15.2701 29.1535L15.5826 29.908L15.5826 29.908L15.2701 29.1535ZM17.58 29.1535L17.2675 29.908L17.2675 29.908L17.58 29.1535ZM19.2133 30.7868L18.4588 31.0993L18.4588 31.0993L19.2133 30.7868ZM19.3305 31.1251L18.5443 31.3461C18.6433 31.6984 18.9646 31.9417 19.3305 31.9417L19.3305 31.1251ZM29.0834 31.1251V31.9417C29.5344 31.9417 29.9001 31.5761 29.9001 31.1251H29.0834ZM11.9334 16.4251C11.9334 15.974 12.299 15.6084 12.7501 15.6084V13.9751C11.397 13.9751 10.3001 15.072 10.3001 16.4251H11.9334ZM11.9334 31.1251L11.9334 16.4251H10.3001L10.3001 31.1251H11.9334ZM13.5196 30.3084H11.1167L11.1167 31.9417H13.5196V30.3084ZM14.3058 31.3461C14.3293 31.2627 14.3578 31.1803 14.3913 31.0993L12.8823 30.4743C12.8239 30.6152 12.7743 30.7587 12.7334 30.9041L14.3058 31.3461ZM14.3913 31.0993C14.6147 30.5599 15.0433 30.1314 15.5826 29.908L14.9576 28.399C14.018 28.7882 13.2715 29.5347 12.8823 30.4743L14.3913 31.0993ZM15.5826 29.908C16.122 29.6846 16.7281 29.6846 17.2675 29.908L17.8925 28.399C16.9529 28.0098 15.8972 28.0098 14.9576 28.399L15.5826 29.908ZM17.2675 29.908C17.8069 30.1314 18.2354 30.5599 18.4588 31.0993L19.9678 30.4743C19.5786 29.5347 18.8321 28.7882 17.8925 28.399L17.2675 29.908ZM18.4588 31.0993C18.4924 31.1803 18.5208 31.2627 18.5443 31.3461L20.1167 30.9041C20.0758 30.7587 20.0262 30.6152 19.9678 30.4743L18.4588 31.0993ZM29.0834 30.3084L19.3305 30.3084L19.3305 31.9417L29.0834 31.9417V30.3084ZM28.2667 16.4251L28.2667 31.1251H29.9001L29.9001 16.4251H28.2667ZM27.4501 15.6084C27.9011 15.6084 28.2667 15.974 28.2667 16.4251H29.9001C29.9001 15.072 28.8032 13.9751 27.4501 13.9751V15.6084ZM12.7501 15.6084L27.4501 15.6084V13.9751L12.7501 13.9751V15.6084Z" fill="#5661CB"/>
<path d="M15.2701 29.1535C16.0096 28.8472 16.8405 28.8472 17.58 29.1535V29.1535C18.3195 29.4598 18.907 30.0473 19.2133 30.7868V30.7868C19.5196 31.5263 19.5196 32.3572 19.2133 33.0967V33.0967C18.907 33.8362 18.3195 34.4237 17.58 34.7301V34.7301C16.8405 35.0364 16.0096 35.0364 15.2701 34.7301V34.7301C14.5306 34.4237 13.9431 33.8362 13.6368 33.0967V33.0967C13.3305 32.3572 13.3305 31.5263 13.6368 30.7868V30.7868C13.9431 30.0473 14.5306 29.4598 15.2701 29.1535V29.1535Z" stroke="#5661CB" stroke-width="1.63333" stroke-linecap="round" stroke-linejoin="round"/>
<rect x="1" y="3" width="48" height="44" rx="8" fill="#9FA6EE" fill-opacity="0.1"/>
</svg>
