<svg width="49" height="49" viewBox="0 0 49 49" fill="none" xmlns="http://www.w3.org/2000/svg">
<path fill-rule="evenodd" clip-rule="evenodd" d="M14.1385 18.5792V33.3813C14.1385 33.7738 14.2945 34.1503 14.5721 34.4279C14.8497 34.7055 15.2262 34.8615 15.6187 34.8615H33.3812C33.7738 34.8615 34.1503 34.7055 34.4279 34.4279C34.7055 34.1503 34.8615 33.7738 34.8615 33.3813V18.5792H14.1385ZM15.6187 14.1385C14.8336 14.1385 14.0806 14.4505 13.5254 15.0056C12.9702 15.5608 12.6583 16.3138 12.6583 17.099V33.3813C12.6583 34.1664 12.9702 34.9194 13.5254 35.4746C14.0806 36.0298 14.8336 36.3417 15.6187 36.3417H33.3812C34.1664 36.3417 34.9194 36.0298 35.4746 35.4746C36.0298 34.9194 36.3417 34.1664 36.3417 33.3813V17.099C36.3417 16.3138 36.0298 15.5608 35.4746 15.0056C34.9194 14.4505 34.1664 14.1385 33.3812 14.1385H15.6187Z" fill="#5661CB"/>
<path fill-rule="evenodd" clip-rule="evenodd" d="M17.839 12.6583C18.0353 12.6583 18.2236 12.7363 18.3624 12.8751C18.5012 13.0139 18.5791 13.2021 18.5791 13.3984V14.1385C18.5791 14.3348 18.5012 14.5231 18.3624 14.6619C18.2236 14.8007 18.0353 14.8786 17.839 14.8786C17.6428 14.8786 17.4545 14.8007 17.3157 14.6619C17.1769 14.5231 17.0989 14.3348 17.0989 14.1385V13.3984C17.0989 13.2021 17.1769 13.0139 17.3157 12.8751C17.4545 12.7363 17.6428 12.6583 17.839 12.6583V12.6583ZM31.1609 12.6583C31.3572 12.6583 31.5455 12.7363 31.6842 12.8751C31.823 13.0139 31.901 13.2021 31.901 13.3984V14.1385C31.901 14.3348 31.823 14.5231 31.6842 14.6619C31.5455 14.8007 31.3572 14.8786 31.1609 14.8786C30.9646 14.8786 30.7764 14.8007 30.6376 14.6619C30.4988 14.5231 30.4208 14.3348 30.4208 14.1385V13.3984C30.4208 13.2021 30.4988 13.0139 30.6376 12.8751C30.7764 12.7363 30.9646 12.6583 31.1609 12.6583V12.6583Z" fill="#5661CB"/>
<path d="M27.2513 22.608L23.7648 30.4254H22.643L26.1181 22.8855H21.5618V22.0067H27.2513V22.608Z" fill="#5661CB"/>
<rect x="1" y="3" width="48" height="44" rx="8" fill="#9FA6EE" fill-opacity="0.1"/>
</svg>
