<svg width="50" height="49" viewBox="0 0 50 49" fill="none" xmlns="http://www.w3.org/2000/svg">
<path d="M31.096 15.7854L19.4883 34.2157" stroke="#5661CB" stroke-width="1.63333" stroke-linecap="round" stroke-linejoin="round"/>
<path d="M19.2187 21.1422C18.0854 20.1426 18.0854 18.5218 19.2187 17.5222V17.5222C20.352 16.5225 22.1894 16.5225 23.3227 17.5222V17.5222C24.4559 18.5218 24.4559 20.1426 23.3227 21.1422V21.1422C22.1894 22.1419 20.352 22.1419 19.2187 21.1422V21.1422Z" stroke="#5661CB" stroke-width="1.63333" stroke-linecap="round" stroke-linejoin="round"/>
<path d="M27.3441 32.4782C26.2108 31.4785 26.2108 29.8578 27.3441 28.8581V28.8581C28.4774 27.8585 30.3148 27.8585 31.4481 28.8581V28.8581C32.5814 29.8578 32.5814 31.4785 31.4481 32.4782V32.4782C30.3148 33.4778 28.4774 33.4778 27.3441 32.4782V32.4782Z" stroke="#5661CB" stroke-width="1.63333" stroke-linecap="round" stroke-linejoin="round"/>
<rect x="1.33334" y="3" width="48" height="44" rx="8" fill="#9FA6EE" fill-opacity="0.1"/>
</svg>
