<svg width="200" height="54" viewBox="0 0 200 54" fill="none" xmlns="http://www.w3.org/2000/svg">
<g clip-path="url(#clip0_1_556)">
<path d="M4.33953 45.2395C3.60152 45.2395 3.03008 45.5296 2.62523 46.1096C2.22037 46.6854 2.01795 47.4896 2.01795 48.5224C2.01795 50.6715 2.79181 51.746 4.33953 51.746C4.98899 51.746 5.77549 51.5768 6.69906 51.2384V52.9524C5.93997 53.282 5.09231 53.4468 4.15608 53.4468C2.81079 53.4468 1.78178 53.0227 1.06907 52.1745C0.356356 51.3219 0 50.1001 0 48.5092C0 47.5072 0.175015 46.6304 0.525045 45.879C0.875075 45.123 1.37692 44.5451 2.0306 44.1452C2.68848 43.7409 3.45813 43.5387 4.33953 43.5387C5.2378 43.5387 6.14031 43.765 7.04698 44.2177L6.41441 45.879C6.0686 45.7075 5.72068 45.5581 5.37064 45.4307C5.02061 45.3032 4.67691 45.2395 4.33953 45.2395Z" fill="#1D2B5B"/>
<path d="M17.8112 53.3149H15.8501V45.3779H13.3388V43.6771H20.3225V45.3779H17.8112V53.3149Z" fill="#1D2B5B"/>
<path d="M29.2778 48.2126H29.923C30.5261 48.2126 30.9774 48.0895 31.2768 47.8434C31.5762 47.5929 31.7259 47.2303 31.7259 46.7557C31.7259 46.2767 31.5994 45.9229 31.3463 45.6943C31.0975 45.4658 30.7053 45.3516 30.1698 45.3516H29.2778V48.2126ZM33.7059 46.6831C33.7059 47.7204 33.3938 48.5136 32.7697 49.0629C32.1497 49.6123 31.2662 49.887 30.1192 49.887H29.2778V53.3149H27.3168V43.6771H30.2709C31.3927 43.6771 32.2446 43.9298 32.8266 44.4352C33.4128 44.9362 33.7059 45.6855 33.7059 46.6831Z" fill="#1D2B5B"/>
<path d="M49.4171 48.4828C49.4171 50.0781 49.0376 51.3043 48.2785 52.1613C47.5194 53.0183 46.4313 53.4468 45.0143 53.4468C43.5973 53.4468 42.5093 53.0183 41.7502 52.1613C40.9911 51.3043 40.6115 50.0738 40.6115 48.4696C40.6115 46.8655 40.9911 45.6416 41.7502 44.7978C42.5135 43.9496 43.6058 43.5255 45.027 43.5255C46.4482 43.5255 47.5341 43.9518 48.2848 44.8044C49.0397 45.657 49.4171 46.8831 49.4171 48.4828ZM42.6675 48.4828C42.6675 49.5596 42.8635 50.3704 43.2558 50.9154C43.6479 51.4603 44.2341 51.7328 45.0143 51.7328C46.5789 51.7328 47.3612 50.6495 47.3612 48.4828C47.3612 46.3118 46.5831 45.2263 45.027 45.2263C44.2468 45.2263 43.6585 45.5009 43.2621 46.0503C42.8656 46.5952 42.6675 47.4061 42.6675 48.4828Z" fill="#1D2B5B"/>
<path d="M56.9045 43.6772H58.6696V48.3313L58.6441 49.5772L58.5811 50.9945H58.6191L62.8886 43.6772H65.2359V53.315H63.4901V48.6872C63.4901 48.0676 63.5281 47.1491 63.6035 45.9317H63.553L59.2642 53.315H56.9045V43.6772ZM64.1352 40.5459C64.0552 41.3677 63.7579 41.9676 63.2433 42.3456C62.7286 42.7191 61.9865 42.9059 61.0163 42.9059C60.0171 42.9059 59.2767 42.7257 58.7961 42.3653C58.3195 42.005 58.0517 41.3985 57.9927 40.5459H59.7198C59.7493 40.9986 59.8566 41.3172 60.0421 41.5018C60.2322 41.682 60.5692 41.7721 61.0543 41.7721C61.4804 41.7721 61.7964 41.6732 62.0035 41.4754C62.214 41.2732 62.3428 40.9634 62.3893 40.5459H64.1352Z" fill="#1D2B5B"/>
<path d="M77.0564 53.3149L74.8294 45.7537H74.7727C74.8527 47.2918 74.8929 48.318 74.8929 48.8322V53.3149H73.1403V43.6771H75.8098L77.9988 51.0472H78.0368L80.3585 43.6771H83.028V53.3149H81.1999V48.7531C81.1999 48.5378 81.2016 48.2894 81.2061 48.0082C81.2147 47.7269 81.2442 46.9798 81.2946 45.7668H81.2379L78.8527 53.3149H77.0564Z" fill="#1D2B5B"/>
<path d="M96.5945 53.3149L95.9239 51.0208H92.5525L91.8819 53.3149H89.769L93.0331 43.6376H95.4308L98.7074 53.3149H96.5945ZM95.4558 49.3069C94.8362 47.2281 94.4861 46.0525 94.4056 45.78C94.3301 45.5075 94.2751 45.2922 94.2416 45.134C94.102 45.6965 93.7037 47.0875 93.0456 49.3069H95.4558Z" fill="#1D2B5B"/>
<path d="M108.574 53.3149H106.613V45.3779H104.101V43.6771H111.085V45.3779H108.574V53.3149Z" fill="#1D2B5B"/>
<path d="M123.405 53.3149H118.079V43.6771H123.405V45.3516H120.04V47.4676H123.171V49.142H120.04V51.6273H123.405V53.3149Z" fill="#1D2B5B"/>
<path d="M132.873 48.2126H133.518C134.121 48.2126 134.572 48.0895 134.872 47.8434C135.171 47.5929 135.321 47.2303 135.321 46.7557C135.321 46.2767 135.194 45.9229 134.941 45.6943C134.693 45.4658 134.301 45.3516 133.765 45.3516H132.873V48.2126ZM137.301 46.6831C137.301 47.7204 136.989 48.5136 136.365 49.0629C135.745 49.6123 134.861 49.887 133.714 49.887H132.873V53.3149H130.912V43.6771H133.866C134.988 43.6771 135.84 43.9298 136.422 44.4352C137.008 44.9362 137.301 45.6855 137.301 46.6831Z" fill="#1D2B5B"/>
<path d="M144.618 43.6771H146.382V48.3312L146.357 49.5772L146.294 50.9945H146.332L150.602 43.6771H152.949V53.3149H151.203V48.6872C151.203 48.0675 151.241 47.149 151.317 45.9317H151.266L146.977 53.3149H144.618V43.6771Z" fill="#1D2B5B"/>
<path d="M166.516 53.3149L165.845 51.0208H162.473L161.803 53.3149H159.69L162.954 43.6376H165.351L168.628 53.3149H166.516ZM165.377 49.3069C164.757 47.2281 164.407 46.0525 164.327 45.78C164.251 45.5075 164.196 45.2922 164.162 45.134C164.023 45.6965 163.624 47.0875 162.967 49.3069H165.377Z" fill="#1D2B5B"/>
<path d="M182.688 53.3149H180.734V45.3779H178.469L178.368 46.2612C178.107 48.507 177.875 50.0826 177.672 50.9879C177.474 51.8888 177.185 52.5239 176.806 52.893C176.43 53.2622 175.909 53.4468 175.243 53.4468C174.889 53.4468 174.576 53.3984 174.307 53.3017V51.6273C174.551 51.7152 174.781 51.7592 174.996 51.7592C175.22 51.7592 175.397 51.6537 175.527 51.4427C175.658 51.2274 175.78 50.8318 175.894 50.2561C176.012 49.676 176.166 48.7289 176.356 47.4149C176.55 46.0965 176.715 44.8505 176.85 43.6771H182.688V53.3149Z" fill="#1D2B5B"/>
<path d="M196.919 50.3023C196.919 51.3043 196.599 52.058 195.958 52.5634C195.321 53.0644 194.376 53.3149 193.124 53.3149H190.593V43.6771H192.554V47.3753H193.187C194.372 47.3753 195.289 47.6324 195.939 48.1466C196.592 48.6564 196.919 49.375 196.919 50.3023ZM192.554 51.6405H193.067C193.712 51.6405 194.184 51.5306 194.484 51.3109C194.784 51.0868 194.933 50.7505 194.933 50.3023C194.933 49.854 194.788 49.5332 194.496 49.3398C194.21 49.1465 193.704 49.0498 192.978 49.0498H192.554V51.6405ZM200 53.3149H198.045V43.6771H200V53.3149Z" fill="#1D2B5B"/>
<path d="M28.0445 13.6346V25.5691H19.8813V13.6346L23.9629 10.6618L28.0445 13.6346ZM31.9394 0L23.9629 5.80879L15.9872 0L0 11.6438V29.4879H9.27484V25.5691H3.92982V13.6346L15.9872 4.85181L20.6321 8.23535L15.9522 11.6438V29.4879H31.9741V11.6438L27.2946 8.23535L31.9394 4.85181L43.9974 13.6346V25.5691H38.2073V29.4879H47.9262V11.6438L31.9394 0Z" fill="#1D2B5B"/>
<path d="M64.2838 29.4532H58.9862V1.84302H79.4566V6.03106H64.2838V29.4532Z" fill="#1D2B5B"/>
<path d="M95.975 23.2099C95.4377 25.3815 94.2655 27.0748 92.4573 28.2899C90.6769 29.5049 88.5441 30.1125 86.0579 30.1125C82.7518 30.1125 80.1242 29.143 78.1747 27.2041C76.2536 25.2393 75.2925 22.7317 75.2925 19.6811C75.2925 16.5529 76.2814 13.9678 78.2593 11.9254C80.2655 9.8831 82.8085 8.86194 85.8882 8.86194C89.0808 8.86194 91.6096 9.87017 93.474 11.8866C95.339 13.8773 96.2718 16.6047 96.2718 20.0689V20.5342H80.1242C80.1804 22.5507 80.7319 24.1148 81.777 25.2264C82.8227 26.3122 84.2774 26.8551 86.1424 26.8551C87.4701 26.8551 88.5441 26.5707 89.3634 26.002C90.2111 25.4074 90.8749 24.4767 91.3555 23.2099H95.975ZM91.44 17.587C91.2987 15.9066 90.7194 14.5882 89.7021 13.6316C88.7138 12.6493 87.4281 12.1581 85.8457 12.1581C84.2633 12.1581 82.9776 12.6234 81.9892 13.5541C81.0281 14.4848 80.4352 15.8291 80.2088 17.587H91.44Z" fill="#1D2B5B"/>
<path d="M104.564 9.44361V12.1193C106.034 9.94773 108.407 8.86194 111.684 8.86194C114.708 8.86194 117.123 9.83136 118.931 11.7703C120.739 13.7092 121.644 16.2944 121.644 19.526C121.644 22.6799 120.753 25.2135 118.974 27.1266C117.222 29.0138 114.877 29.9574 111.938 29.9574C108.831 29.9574 106.457 28.9103 104.818 26.8163V36.8599H100.029V9.44361H104.564ZM110.709 12.4295C108.817 12.4295 107.333 13.05 106.259 14.2909C105.186 15.5318 104.649 17.251 104.649 19.4484C104.649 21.62 105.186 23.3263 106.259 24.5672C107.361 25.8081 108.873 26.4285 110.794 26.4285C112.63 26.4285 114.086 25.8081 115.159 24.5672C116.233 23.3263 116.77 21.6459 116.77 19.526C116.77 17.3544 116.219 15.6352 115.117 14.3684C114.043 13.0758 112.574 12.4295 110.709 12.4295Z" fill="#1D2B5B"/>
<path d="M130.515 29.4532H125.854V9.4436H132.211L138.313 25.3427H138.398L144.289 9.4436H150.646V29.4532H145.985V16.1523H145.9L140.687 29.4532H135.813L130.6 16.1523H130.515V29.4532Z" fill="#1D2B5B"/>
<path d="M175.274 23.2099C174.738 25.3815 173.565 27.0748 171.757 28.2899C169.977 29.5049 167.843 30.1125 165.357 30.1125C162.051 30.1125 159.424 29.143 157.474 27.2041C155.553 25.2393 154.592 22.7317 154.592 19.6811C154.592 16.5529 155.581 13.9678 157.559 11.9254C159.565 9.8831 162.108 8.86194 165.188 8.86194C168.38 8.86194 170.909 9.87017 172.774 11.8866C174.638 13.8773 175.571 16.6047 175.571 20.0689V20.5342H159.424C159.48 22.5507 160.031 24.1148 161.076 25.2264C162.122 26.3122 163.577 26.8551 165.442 26.8551C166.77 26.8551 167.843 26.5707 168.663 26.002C169.51 25.4074 170.174 24.4767 170.655 23.2099H175.274ZM170.739 17.587C170.598 15.9066 170.019 14.5882 169.002 13.6316C168.013 12.6493 166.727 12.1581 165.145 12.1581C163.563 12.1581 162.277 12.6234 161.289 13.5541C160.328 14.4848 159.734 15.8291 159.509 17.587H170.739Z" fill="#1D2B5B"/>
<path d="M199.079 21.8914C198.739 24.3474 197.666 26.3122 195.858 27.7857C194.049 29.2335 191.775 29.9574 189.034 29.9574C185.757 29.9574 183.143 29.0138 181.193 27.1266C179.244 25.2135 178.269 22.7187 178.269 19.6423C178.269 16.3332 179.244 13.7092 181.193 11.7703C183.171 9.80553 185.827 8.82312 189.161 8.82312C191.958 8.82312 194.204 9.46942 195.9 10.7621C197.623 12.0547 198.626 13.8514 198.909 16.1523H194.12C193.837 14.8855 193.272 13.916 192.424 13.2439C191.577 12.5717 190.503 12.2356 189.203 12.2356C187.338 12.2356 185.869 12.882 184.796 14.1746C183.722 15.4413 183.185 17.1864 183.185 19.4096C183.185 21.6329 183.694 23.365 184.711 24.6059C185.757 25.8468 187.197 26.4673 189.034 26.4673C190.475 26.4673 191.648 26.0795 192.551 25.3039C193.484 24.5025 194.077 23.365 194.331 21.8914H199.079Z" fill="#1D2B5B"/>
</g>
<defs>
<clipPath id="clip0_1_556">
<rect width="200" height="53.4468" fill="white"/>
</clipPath>
</defs>
</svg>
