<svg width="29" height="27" viewBox="0 0 29 27" fill="none" xmlns="http://www.w3.org/2000/svg">
<g clip-path="url(#clip0_393_2031)">
<path d="M13.2315 20.4057H0.472554C0.214797 20.4057 0 20.6205 0 20.8783V26.4201C0 26.6778 0.214797 26.8926 0.472554 26.8926H13.2745C13.5322 26.8926 13.747 26.6778 13.747 26.463V20.8783C13.747 20.6205 13.4893 20.4057 13.2315 20.4057ZM12.759 25.9475H0.945107V21.3508H12.8019C12.8019 21.3508 12.8019 25.9475 12.759 25.9475ZM27.7518 20.4057H14.9928C14.7351 20.4057 14.5203 20.6205 14.5203 20.8783V26.4201C14.5203 26.6778 14.7351 26.8926 14.9928 26.8926H27.7947C28.0525 26.8926 28.2673 26.6778 28.2673 26.463V20.8783C28.2673 20.6205 28.0525 20.4057 27.7518 20.4057ZM27.2792 25.9475H15.4654V21.3508H27.3222L27.2792 25.9475ZM7.81862 13.2315C7.56086 13.2315 7.34606 13.4463 7.34606 13.7041V19.2458C7.34606 19.5036 7.56086 19.7184 7.81862 19.7184H20.6205C20.8783 19.7184 21.0931 19.5036 21.0931 19.2458V13.7041C21.0931 13.4463 20.8783 13.2315 20.6205 13.2315H7.81862ZM8.29117 18.7733V14.1766H20.148L20.1909 18.7733H8.29117Z" fill="#5661CB"/>
<path d="M8.76367 10.7399C9.02143 11.0835 9.40806 11.2983 9.83766 11.2983C10.2673 11.2983 10.6968 11.0406 10.9116 10.6969L12.2434 8.46301L13.0167 8.93556C13.0596 8.97852 13.1455 8.97852 13.1885 8.97852C13.3174 8.97852 13.4033 8.8926 13.4892 8.80668L13.704 8.42005H13.747L19.1169 9.27923L18.7303 9.79475C18.6443 9.88067 18.6014 9.96659 18.6014 10.1814C18.6014 10.3103 18.7303 10.3532 18.8162 10.4391L25.0023 14.9499C25.0883 14.9928 25.1742 15.0358 25.3031 15.0358C25.4749 15.0358 25.6038 14.9928 25.6897 14.864L27.3651 12.5442C27.451 12.4582 27.5369 12.2434 27.494 12.1146C27.451 11.9857 27.4081 11.9427 27.3221 11.8568L21.136 7.43198C20.9212 7.3031 20.6205 7.34606 20.4916 7.5179L19.8042 8.46301L14.3054 7.60382L14.3914 7.43198C14.4343 7.34606 14.4773 7.21718 14.4343 7.13126C14.3914 7.04534 14.3484 7.00238 14.2625 6.95942L13.4892 6.44391L14.735 4.38186C14.9928 4.03818 14.9928 3.60859 14.8639 3.22195C14.6921 2.83532 14.3914 2.57756 14.0047 2.44868L4.12405 0.0429565C3.6515 -0.0859218 3.13599 0.0859159 2.87823 0.51551C2.53455 0.945104 2.53455 1.50358 2.87823 1.93317L8.76367 10.7399ZM21.0071 8.46301L26.42 12.4153L25.3031 13.9189L19.8472 9.96659L21.0071 8.46301ZM13.6181 7.34606L13.1026 8.11933L12.5011 7.73269L10.3961 6.40095C10.1813 6.27207 10.1384 6.01432 10.2673 5.79952L10.3102 5.7136C10.4391 5.4988 10.6968 5.45584 10.9116 5.58472L13.6181 7.34606ZM3.60854 1.03102C3.6515 0.988064 3.73742 0.945104 3.78038 0.945104H3.8663L13.704 3.35083C13.7899 3.35083 13.9188 3.43675 13.9618 3.52267C14.0047 3.60859 14.0047 3.73747 13.9188 3.82339L12.673 5.88544L11.2124 4.94033C10.7398 4.63962 10.0954 4.76849 9.7947 5.24105L9.62286 5.4988C9.49398 5.75656 9.45102 6.05728 9.49398 6.27207C9.5799 6.52983 9.66582 6.74463 9.96654 6.91647L11.556 7.90453L10.1813 10.1384C10.1384 10.2243 10.0095 10.3103 9.88062 10.3103C9.75174 10.3103 9.66582 10.2673 9.5799 10.1814L3.60854 1.3747C3.52262 1.28878 3.52262 1.1599 3.60854 1.03102ZM10.3961 14.821L9.3651 15.852C9.23622 15.9809 9.23622 16.1957 9.3651 16.3246C9.40806 16.3675 9.49398 16.4105 9.5799 16.4105C9.66582 16.4105 9.75174 16.4105 9.83766 16.3246L10.8687 15.2936C10.9976 15.1647 10.9976 14.9499 10.8687 14.821C10.7398 14.6921 10.525 14.6921 10.3961 14.821ZM10.3961 16.3675L9.3651 17.3986C9.23622 17.5274 9.23622 17.7422 9.3651 17.8711C9.40806 17.9141 9.49398 17.957 9.5799 17.957C9.66582 17.957 9.75174 17.9141 9.83766 17.8711L10.8687 16.8401C10.9976 16.7112 10.9976 16.4964 10.8687 16.3675C10.7398 16.2387 10.525 16.2387 10.3961 16.3675ZM2.31976 23.6706C2.40568 23.6706 2.49159 23.6706 2.53455 23.6277L3.56558 22.5967C3.69446 22.4678 3.69446 22.253 3.56558 22.1241C3.4367 21.9952 3.2219 21.9952 3.09303 22.1241L2.10496 23.1122C1.97608 23.241 1.97608 23.4558 2.10496 23.5847C2.14792 23.6277 2.23384 23.6706 2.31976 23.6706ZM2.31976 25.2172C2.40568 25.2172 2.49159 25.1742 2.53455 25.1313L3.56558 24.1002C3.69446 23.9714 3.69446 23.7566 3.56558 23.6277C3.4367 23.4988 3.2219 23.4988 3.09303 23.6277L2.10496 24.6587C1.97608 24.7876 1.97608 25.0024 2.10496 25.1313C2.14792 25.1742 2.23384 25.2172 2.31976 25.2172ZM16.926 23.6706C17.0119 23.6706 17.0978 23.6706 17.1837 23.5847L18.2147 22.5537C18.3436 22.4248 18.3436 22.21 18.2147 22.0811C18.0859 21.9523 17.8711 21.9523 17.7422 22.0811L16.7112 23.1122C16.5823 23.241 16.5823 23.4558 16.7112 23.5847C16.7541 23.6277 16.84 23.6706 16.926 23.6706ZM16.926 25.2172C17.0119 25.2172 17.0978 25.1742 17.1837 25.1313L18.2147 24.1002C18.3436 23.9714 18.3436 23.7566 18.2147 23.6277C18.0859 23.4988 17.8711 23.4988 17.7422 23.6277L16.7112 24.6587C16.5823 24.7876 16.5823 25.0024 16.7112 25.1313C16.7541 25.1742 16.84 25.2172 16.926 25.2172Z" fill="#5661CB"/>
</g>
<defs>
<clipPath id="clip0_393_2031">
<rect width="28.2673" height="26.8926" fill="white"/>
</clipPath>
</defs>
</svg>
