<svg width="109" height="23" viewBox="0 0 109 23" fill="none" xmlns="http://www.w3.org/2000/svg">
<rect width="109" height="23" fill="white"/>
<path d="M0 0H109C105.079 11 104.687 11 109 23H0V0Z" fill="#F2994A"/>
<path d="M20.4414 7.46875V16H19.3164V8.39453H16.2578L16.1055 11.7754C16.0469 12.9082 15.9297 13.7598 15.7539 14.3301C15.582 14.9004 15.3281 15.3203 14.9922 15.5898C14.6562 15.8555 14.207 15.9922 13.6445 16H13.2754V15.0801L13.5098 15.0684C13.873 15.041 14.1523 14.9238 14.3477 14.7168C14.543 14.5059 14.6914 14.1719 14.793 13.7148C14.8945 13.2578 14.9668 12.5547 15.0098 11.6055L15.1855 7.46875H20.4414ZM26.418 9.66016H27.502V16H26.418V11.377L23.4941 16H22.4102V9.66016H23.4941V14.2891L26.418 9.66016ZM29.1895 15.1152L29.5645 14.6523C29.9863 14.1055 30.2266 13.2852 30.2852 12.1914L30.3848 9.66016H34.4688V15.1152H35.2832V17.8633H34.1992V16H29.7754V17.8633H28.6914L28.6973 15.1152H29.1895ZM30.4727 15.1152H33.3848V10.6621H31.4336L31.3691 12.1738C31.3027 13.4355 31.0039 14.416 30.4727 15.1152ZM39.1152 16.1172C38.2559 16.1172 37.5566 15.8359 37.0176 15.2734C36.4785 14.707 36.209 13.9512 36.209 13.0059V12.8066C36.209 12.1777 36.3281 11.6172 36.5664 11.125C36.8086 10.6289 37.1445 10.2422 37.5742 9.96484C38.0078 9.68359 38.4766 9.54297 38.9805 9.54297C39.8047 9.54297 40.4453 9.81445 40.9023 10.3574C41.3594 10.9004 41.5879 11.6777 41.5879 12.6895V13.1406H37.293C37.3086 13.7656 37.4902 14.2715 37.8379 14.6582C38.1895 15.041 38.6348 15.2324 39.1738 15.2324C39.5566 15.2324 39.8809 15.1543 40.1465 14.998C40.4121 14.8418 40.6445 14.6348 40.8438 14.377L41.5059 14.8926C40.9746 15.709 40.1777 16.1172 39.1152 16.1172ZM38.9805 10.4336C38.543 10.4336 38.1758 10.5938 37.8789 10.9141C37.582 11.2305 37.3984 11.6758 37.3281 12.25H40.5039V12.168C40.4727 11.6172 40.3242 11.1914 40.0586 10.8906C39.793 10.5859 39.4336 10.4336 38.9805 10.4336ZM48.2031 12.9004C48.2031 13.8652 47.9824 14.6426 47.541 15.2324C47.0996 15.8223 46.502 16.1172 45.748 16.1172C44.9785 16.1172 44.373 15.873 43.9316 15.3848V18.4375H42.8477V9.66016H43.8379L43.8906 10.3633C44.332 9.81641 44.9453 9.54297 45.7305 9.54297C46.4922 9.54297 47.0938 9.83008 47.5352 10.4043C47.9805 10.9785 48.2031 11.7773 48.2031 12.8008V12.9004ZM47.1191 12.7773C47.1191 12.0625 46.9668 11.498 46.6621 11.084C46.3574 10.6699 45.9395 10.4629 45.4082 10.4629C44.752 10.4629 44.2598 10.7539 43.9316 11.3359V14.3652C44.2559 14.9434 44.752 15.2324 45.4199 15.2324C45.9395 15.2324 46.3516 15.0273 46.6562 14.6172C46.9648 14.2031 47.1191 13.5898 47.1191 12.7773ZM57.748 16H56.6641V10.5566H53.7461V16H52.6562V9.66016H57.748V16ZM64.8438 12.9004C64.8438 13.8652 64.623 14.6426 64.1816 15.2324C63.7402 15.8223 63.1426 16.1172 62.3887 16.1172C61.6191 16.1172 61.0137 15.873 60.5723 15.3848V18.4375H59.4883V9.66016H60.4785L60.5312 10.3633C60.9727 9.81641 61.5859 9.54297 62.3711 9.54297C63.1328 9.54297 63.7344 9.83008 64.1758 10.4043C64.6211 10.9785 64.8438 11.7773 64.8438 12.8008V12.9004ZM63.7598 12.7773C63.7598 12.0625 63.6074 11.498 63.3027 11.084C62.998 10.6699 62.5801 10.4629 62.0488 10.4629C61.3926 10.4629 60.9004 10.7539 60.5723 11.3359V14.3652C60.8965 14.9434 61.3926 15.2324 62.0605 15.2324C62.5801 15.2324 62.9922 15.0273 63.2969 14.6172C63.6055 14.2031 63.7598 13.5898 63.7598 12.7773ZM65.9395 12.7715C65.9395 12.1504 66.0605 11.5918 66.3027 11.0957C66.5488 10.5996 66.8887 10.2168 67.3223 9.94727C67.7598 9.67773 68.2578 9.54297 68.8164 9.54297C69.6797 9.54297 70.377 9.8418 70.9082 10.4395C71.4434 11.0371 71.7109 11.832 71.7109 12.8242V12.9004C71.7109 13.5176 71.5918 14.0723 71.3535 14.5645C71.1191 15.0527 70.7812 15.4336 70.3398 15.707C69.9023 15.9805 69.3984 16.1172 68.8281 16.1172C67.9688 16.1172 67.2715 15.8184 66.7363 15.2207C66.2051 14.623 65.9395 13.832 65.9395 12.8477V12.7715ZM67.0293 12.9004C67.0293 13.6035 67.1914 14.168 67.5156 14.5938C67.8438 15.0195 68.2812 15.2324 68.8281 15.2324C69.3789 15.2324 69.8164 15.0176 70.1406 14.5879C70.4648 14.1543 70.627 13.5488 70.627 12.7715C70.627 12.0762 70.4609 11.5137 70.1289 11.084C69.8008 10.6504 69.3633 10.4336 68.8164 10.4336C68.2812 10.4336 67.8496 10.6465 67.5215 11.0723C67.1934 11.498 67.0293 12.1074 67.0293 12.9004ZM72.5957 15.1152L72.9707 14.6523C73.3926 14.1055 73.6328 13.2852 73.6914 12.1914L73.791 9.66016H77.875V15.1152H78.6895V17.8633H77.6055V16H73.1816V17.8633H72.0977L72.1035 15.1152H72.5957ZM73.8789 15.1152H76.791V10.6621H74.8398L74.7754 12.1738C74.709 13.4355 74.4102 14.416 73.8789 15.1152ZM83.8047 16C83.7422 15.875 83.6914 15.6523 83.6523 15.332C83.1484 15.8555 82.5469 16.1172 81.8477 16.1172C81.2227 16.1172 80.709 15.9414 80.3066 15.5898C79.9082 15.2344 79.709 14.7852 79.709 14.2422C79.709 13.582 79.959 13.0703 80.459 12.707C80.9629 12.3398 81.6699 12.1562 82.5801 12.1562H83.6348V11.6582C83.6348 11.2793 83.5215 10.9785 83.2949 10.7559C83.0684 10.5293 82.7344 10.416 82.293 10.416C81.9062 10.416 81.582 10.5137 81.3203 10.709C81.0586 10.9043 80.9277 11.1406 80.9277 11.418H79.8379C79.8379 11.1016 79.9492 10.7969 80.1719 10.5039C80.3984 10.207 80.7031 9.97266 81.0859 9.80078C81.4727 9.62891 81.8965 9.54297 82.3574 9.54297C83.0879 9.54297 83.6602 9.72656 84.0742 10.0938C84.4883 10.457 84.7031 10.959 84.7188 11.5996V14.5176C84.7188 15.0996 84.793 15.5625 84.9414 15.9062V16H83.8047ZM82.0059 15.1738C82.3457 15.1738 82.668 15.0859 82.9727 14.9102C83.2773 14.7344 83.498 14.5059 83.6348 14.2246V12.9238H82.7852C81.457 12.9238 80.793 13.3125 80.793 14.0898C80.793 14.4297 80.9062 14.6953 81.1328 14.8867C81.3594 15.0781 81.6504 15.1738 82.0059 15.1738ZM91.4746 13.2461H90.7129V16H89.6289V13.2461H88.8672L87.0918 16H85.7207L87.9883 12.7188L85.9375 9.66016H87.25L88.8848 12.2852H89.6289V9.66016H90.7129V12.2852H91.4512L93.0977 9.66016H94.4102L92.3535 12.7246L94.6211 16H93.25L91.4746 13.2461Z" fill="white"/>
</svg>
