<svg width="19" height="24" viewBox="0 0 19 24" fill="none" xmlns="http://www.w3.org/2000/svg">
<path d="M12.5037 22.958C12.3087 22.9059 12.1197 22.8329 11.94 22.7401C8.50687 21.0216 5.62243 18.3558 3.61865 15.0495C1.67338 11.7525 0.712744 7.95506 0.852978 4.11651C0.875783 3.63952 1.01936 3.1765 1.26988 2.772C1.52041 2.3675 1.86946 2.03513 2.28346 1.80687L5.18668 0.156015C5.33444 0.0737128 5.49768 0.0239078 5.66573 0.00985044C5.83378 -0.00420682 6.00287 0.0177996 6.16195 0.0744333C6.32598 0.136768 6.47454 0.234754 6.59718 0.361503C6.71982 0.488251 6.81357 0.640683 6.87183 0.808079L8.65593 5.91901C8.72138 6.11632 8.72259 6.32972 8.65939 6.52778C8.59619 6.72585 8.47191 6.89813 8.30483 7.01927L6.39475 8.39862C6.64033 9.85258 7.1595 11.2451 7.92401 12.5005C8.67272 13.7899 9.6585 14.9218 10.8279 15.8351L13.0061 14.8592C13.1889 14.7779 13.3917 14.7548 13.5878 14.7931C13.7838 14.8314 13.9637 14.9292 14.1035 15.0736L17.7468 19.0994C17.8738 19.2301 17.9699 19.3881 18.028 19.5618C18.0862 19.7354 18.1047 19.9201 18.0824 20.1021C18.06 20.284 17.9974 20.4585 17.899 20.6124C17.8007 20.7663 17.6692 20.8956 17.5146 20.9908L14.6679 22.6628C14.3441 22.8542 13.9863 22.9787 13.6148 23.0294C13.2434 23.08 12.8658 23.0558 12.5037 22.958ZM5.76975 1.21407L2.86653 2.86493C2.63392 2.99223 2.43802 3.17868 2.29809 3.40595C2.15816 3.63322 2.07902 3.89347 2.06846 4.16113C1.93011 7.7613 2.82378 11.325 4.64145 14.4216C6.52731 17.5324 9.24194 20.0402 12.4728 21.6564C12.7171 21.7794 12.9878 21.839 13.2605 21.8299C13.5332 21.8208 13.7995 21.7433 14.0353 21.6043L16.882 19.9322L13.3639 16.0462L11.0236 17.0985C10.9341 17.1384 10.8363 17.1555 10.7388 17.1484C10.6413 17.1413 10.5469 17.1101 10.464 17.0575C9.00922 16.0319 7.79606 14.6932 6.91131 13.1373C5.96961 11.6312 5.37571 9.92908 5.17391 8.15795C5.17292 8.05369 5.19842 7.95093 5.24797 7.85954C5.29751 7.76816 5.36943 7.69123 5.45681 7.63616L7.51192 6.15069L5.76975 1.21407Z" fill="#5661CB"/>
</svg>
