<svg width="27" height="27" viewBox="0 0 27 27" fill="none" xmlns="http://www.w3.org/2000/svg">
<path fill-rule="evenodd" clip-rule="evenodd" d="M4.8363 25.0594C4.70467 25.8086 5.4438 26.3942 6.09517 26.06L13.5033 22.253L20.9097 26.06C21.5611 26.3942 22.3002 25.8086 22.1686 25.061L20.768 17.0792L26.713 11.4159C27.2682 10.886 26.9797 9.91741 26.2355 9.81279L17.9701 8.63829L14.2846 1.33648C14.2144 1.18846 14.1036 1.06341 13.9652 0.975845C13.8267 0.88828 13.6663 0.841797 13.5025 0.841797C13.3386 0.841797 13.1782 0.88828 13.0397 0.975845C12.9013 1.06341 12.7905 1.18846 12.7203 1.33648L9.0348 8.63998L0.769425 9.81448C0.0252374 9.9191 -0.263325 10.8877 0.291862 11.4176L6.23693 17.0809L4.8363 25.0627V25.0594ZM13.1135 20.39L6.89336 23.5862L8.06449 16.9087C8.09192 16.755 8.08119 16.5969 8.03323 16.4483C7.98527 16.2997 7.90155 16.1652 7.78943 16.0565L2.88555 11.3822L9.7233 10.4102C9.86489 10.3888 9.99919 10.3334 10.1147 10.2488C10.2302 10.1641 10.3235 10.0527 10.3865 9.92416L13.5033 3.75129L16.6184 9.92416C16.6815 10.0527 16.7747 10.1641 16.8902 10.2488C17.0057 10.3334 17.14 10.3888 17.2816 10.4102L24.1194 11.3805L19.2155 16.0549C19.103 16.1636 19.019 16.2984 18.971 16.4473C18.9231 16.5963 18.9125 16.7548 18.9404 16.9087L20.1115 23.5862L13.8914 20.39C13.7711 20.328 13.6378 20.2957 13.5025 20.2957C13.3671 20.2957 13.2338 20.328 13.1135 20.39Z" fill="#5661CB"/>
</svg>
