<svg width="25" height="25" viewBox="0 0 25 25" fill="none" xmlns="http://www.w3.org/2000/svg">
<path d="M12.5 0C5.59639 0 0 5.59639 0 12.5C0 19.4036 5.59639 25 12.5 25C19.4036 25 25 19.4036 25 12.5C25 5.59639 19.4036 0 12.5 0Z" fill="#40B3E0"/>
<path d="M18.5823 7.19044L16.3496 18.4472C16.3496 18.4472 16.0374 19.2278 15.1787 18.8531L10.0266 14.9031L8.15312 13.9977L4.99941 12.9359C4.99941 12.9359 4.51542 12.7643 4.46855 12.3896C4.42167 12.0149 5.01503 11.8119 5.01503 11.8119L17.5518 6.89396C17.5518 6.89396 18.5822 6.44123 18.5822 7.19064" fill="white"/>
<path d="M9.63066 18.3206C9.63066 18.3206 9.48027 18.3066 9.29277 17.7132C9.10556 17.1199 8.15312 13.9975 8.15312 13.9975L15.7252 9.18889C15.7252 9.18889 16.1624 8.92346 16.1468 9.18889C16.1468 9.18889 16.2248 9.23577 15.9905 9.45432C15.7564 9.67297 10.0423 14.8094 10.0423 14.8094" fill="#D2E5F1"/>
<path d="M12.002 16.4176L9.96425 18.2756C9.96425 18.2756 9.80488 18.3965 9.63066 18.3207L10.0209 14.8695" fill="#B5CFE4"/>
</svg>
